# xmcd
#
# Track frame offsets:
#	150
#	10756
#	23080
#	40855
#	53852
#	67366
#	76400
#	83386
#	90267
#	100621
#	113374
#	122484
#	138073
#	147701
#	158783
#	170568
#	174759
#	191610
#	204691
#	214853
#
# Disc length: 2954 seconds
#
# Revision: 2
# Processed by: cddbd v1.5.2PL0 Copyright (c) Steve Scherf et al.
# Submitted via: audiograbber 1.83.01
#
DISCID=fc0b8814
DTITLE=Kicsi vagyok - 3
DYEAR=1900
DGENRE=
TTITLE0=Hála Úr Jézus
TTITLE1=Légy fürge élõ hal
TTITLE2=Állj meg ne menj tovább
TTITLE3=Már nyitva áll a menny
TTITLE4=Hová és merre visz
TTITLE5=Nyisd ki a szemed
TTITLE6=Oly erõs az Úr
TTITLE7=Gondold csak el
TTITLE8=Szeret az Isten
TTITLE9=Zengjünk együtt
TTITLE10=Isten szépnek alkotta
TTITLE11=Isten dicsérlek Téged
TTITLE12=Állj, elmondom neked
TTITLE13=Énekelj új éneket
TTITLE14=Kérlek adj szívembe
TTITLE15=Zákeus
TTITLE16=Hadd higgyek Tebenned
TTITLE17=Hogyan lehet
TTITLE18=Mindig megbocsátott
TTITLE19=Válasszatok
EXTD=
EXTT0=
EXTT1=
EXTT2=
EXTT3=
EXTT4=
EXTT5=
EXTT6=
EXTT7=
EXTT8=
EXTT9=
EXTT10=
EXTT11=
EXTT12=
EXTT13=
EXTT14=
EXTT15=
EXTT16=
EXTT17=
EXTT18=
EXTT19=
PLAYORDER=
